<?xml version="1.0" encoding="utf-8" ?>
<svg baseProfile="full" height="300mm" version="1.1" viewBox="0,0,200,300" width="200mm" xmlns="http://www.w3.org/2000/svg" xmlns:ev="http://www.w3.org/2001/xml-events" xmlns:xlink="http://www.w3.org/1999/xlink"><defs /><rect fill="#222222" height="300" width="200" x="0" y="0" /><g id="header"><text fill="#FFFFFF" style="font-size:12px; font-family:Arial; font-weight:bold;" x="10" y="20">RZR Turbo R</text></g><g id="footer"><text fill="#FFFFFF" style="font-size:4px; font-family:Arial" x="10" y="280">ATHLETE</text><text fill="#FFFFFF" style="font-size:9px; font-family:Arial" x="10" y="290">Jonathan Cachat</text><text fill="#FFFFFF" style="font-size:4px; font-family:Arial" x="120" y="280">STATISTICS</text><text fill="#FFFFFF" style="font-size:3px; font-family:Arial" x="120" y="285">Number: 28</text><text fill="#FFFFFF" style="font-size:3px; font-family:Arial" x="120" y="290">Weekly: 1.6</text><text fill="#FFFFFF" style="font-size:3px; font-family:Arial" x="141" y="285">Total: 2228.6 km</text><text fill="#FFFFFF" style="font-size:3px; font-family:Arial" x="141" y="290">Avg: 79.6 km</text><text fill="#FFFFFF" style="font-size:3px; font-family:Arial" x="167" y="285">Min: 9.3 km</text><text fill="#FFFFFF" style="font-size:3px; font-family:Arial" x="167" y="290">Max: 304.9 km</text></g><g id="tracks"><g id="year2023"><text alignment-baseline="middle" fill="#FFFFFF" style="dominant-baseline: central; font-size:5.6px; font-family:Arial;" text-anchor="middle" x="100.0" y="90.0">2023</text><line stroke="#FFFFFF" stroke-width="0.3" x1="100.0" x2="100.0" y1="39.0" y2="34.0" /><path d="M 100.0 38.0 a52.0,52.0 0 0,1 25.676328608318816,6.781351753976228" fill="none" id="id1" stroke="none" /><text fill="#FFFFFF" style="font-size:4.2px; font-family:Arial;" text-anchor="middle"><textPath startOffset="13.427080930411169" xlink:href="#id1">January</textPath></text><line stroke="#FFFFFF" stroke-width="0.3" x1="125.94221813645733" x2="128.48557285571786" y1="46.09098818966129" y2="41.78618311021632" /><path d="M 126.45088908030942 45.23002717377229 a52.0,52.0 0 0,1 17.26126801268343,16.605326152116668" fill="none" id="id2" stroke="none" /><text fill="#FFFFFF" style="font-size:4.2px; font-family:Arial;" text-anchor="middle"><textPath startOffset="12.084372837370053" xlink:href="#id2">February</textPath></text><line stroke="#FFFFFF" stroke-width="0.3" x1="143.3406716679039" x2="147.58975712554155" y1="63.11903685923902" y2="60.48364831602716" /><path d="M 144.19048875943145 62.591959150596644 a52.0,52.0 0 0,1 7.770511825032095,25.394482243010273" fill="none" id="id3" stroke="none" /><text fill="#FFFFFF" style="font-size:4.2px; font-family:Arial;" text-anchor="middle"><textPath startOffset="13.427080930411169" xlink:href="#id3">March</textPath></text><line stroke="#FFFFFF" stroke-width="0.3" x1="150.98819360097443" x2="155.98703611087387" y1="88.90267903075267" y2="88.79509854357156" /><path d="M 151.98796210295433 88.88116293331645 a52.0,52.0 0 0,1 -5.808981326220678,25.024939518192962" fill="none" id="id4" stroke="none" /><text fill="#FFFFFF" style="font-size:4.2px; font-family:Arial;" text-anchor="middle"><textPath startOffset="12.979511566064126" xlink:href="#id4">April</textPath></text><line stroke="#FFFFFF" stroke-width="0.3" x1="144.88062240265032" x2="149.280683422518" y1="114.22250467541954" y2="116.5972600357548" /><path d="M 145.76063460662385 114.6974557474866 a52.0,52.0 0 0,1 -18.162672102203324,19.37467224294062" fill="none" id="id5" stroke="none" /><text fill="#FFFFFF" style="font-size:4.2px; font-family:Arial;" text-anchor="middle"><textPath startOffset="13.42708093041118" xlink:href="#id5">May</textPath></text><path d="M 108.18945446511357 99.4436664259085 l 3.532476771217334 4.073474298777263 a17.89180721112958,17.89180721112958 0 0,0 -0.23441208810521366,0.19977106694490884 l -3.4618352327686397 -4.133676550378688" fill="#4dd2ff" stroke="none"><title>2023-05-22 43.8 km</title></path><path d="M 107.34731565365591 100.11271242968684 l 17.544567886495283 24.148026041451246 a42.3486017096689,42.3486017096689 0 0,0 -0.593430294617503,0.4233967586580329 l -17.126299896729634 -24.446449146445126" fill="#4dd2ff" stroke="none"><title>2023-05-27 242.7 km</title></path><line stroke="#FFFFFF" stroke-width="0.3" x1="126.3191819418085" x2="128.89949389688775" y1="133.6841007909512" y2="137.9668557704562" /><path d="M 126.83524433282435 134.54065178685218 a52.0,52.0 0 0,1 -24.598088216588756,7.411202198463773" fill="none" id="id6" stroke="none" /><text fill="#FFFFFF" style="font-size:4.2px; font-family:Arial;" text-anchor="middle"><textPath startOffset="12.979511566064133" xlink:href="#id6">June</textPath></text><path d="M 105.8894938459233 101.02560031194817 l 2.0098593545213115 3.762616364990548 a16.765772677376457,16.765772677376457 0 0,0 -0.25572521498744727,0.13378334616136972 l -1.9447943166014263 -3.7966553176666302" fill="#4dd2ff" stroke="none"><title>2023-06-04 34.7 km</title></path><path d="M 104.72134956504956 101.57405971492312 l 2.4079708126701544 5.902972782178176 a18.87521851404387,18.87521851404387 0 0,0 -0.301894670665319,0.12013011985366448 l -2.306004072932296 -5.943547452273548" fill="#4dd2ff" stroke="none"><title>2023-06-10 51.8 km</title></path><path d="M 101.82248996149843 102.36642754962958 l 1.1942574818633556 8.103582975526253 a20.691111522511797,20.691111522511797 0 0,0 -0.35280454537029543,0.04889549522598407 l -1.0545906798342324 -8.122939521640692" fill="#4dd2ff" stroke="none"><title>2023-06-24 66.6 km</title></path><path d="M 100.53777791255663 102.48842643877788 l 0.22307612662897489 5.18033510229016 a17.68513594135114,17.68513594135114 0 0,0 -0.3042514139751099,0.010479033875245996 l -0.13387212237133386 -5.1834074685618905" fill="#4dd2ff" stroke="none"><title>2023-06-30 42.2 km</title></path><line stroke="#FFFFFF" stroke-width="0.3" x1="101.31674045158378" x2="101.44583265271945" y1="140.98299907403606" y2="145.98133231658863" /><path d="M 101.34255889181092 141.98266572254659 a52.0,52.0 0 0,1 -25.842853290851824,-6.116168424842188" fill="none" id="id7" stroke="none" /><text fill="#FFFFFF" style="font-size:4.2px; font-family:Arial;" text-anchor="middle"><textPath startOffset="13.427080930411169" xlink:href="#id7">July</textPath></text><path d="M 96.29108975908137 101.93708443569069 l -0.33881803737110966 1.0904819091637534 a13.641905625111566,13.641905625111566 0 0,0 -0.22364842471474972,-0.07160516300918972 l 0.3575386913066572 -1.0844881469523575" fill="#4dd2ff" stroke="none"><title>2023-07-20 9.3 km</title></path><path d="M 95.67984609161583 101.7297173967608 l -1.6115982018318855 4.375675465619293 a17.163023112163437,17.163023112163437 0 0,0 -0.27634901028580877,-0.10449154944525682 l 1.6866794863797674 -4.3472861482534215" fill="#4dd2ff" stroke="none"><title>2023-07-23 37.9 km</title></path><line stroke="#FFFFFF" stroke-width="0.3" x1="75.2000919374568" x2="72.76872840191335" y1="134.56416228416512" y2="138.93319780222052" /><path d="M 74.71381923034811 135.4379693877762 a52.0,52.0 0 0,1 -19.138572057339108,-18.411291155689383" fill="none" id="id8" stroke="none" /><text fill="#FFFFFF" style="font-size:4.2px; font-family:Arial;" text-anchor="middle"><textPath startOffset="13.427080930411169" xlink:href="#id8">August</textPath></text><path d="M 92.65268434634409 100.11271242968684 l -2.416067942781946 3.325432235075053 a16.610460297121826,16.610460297121826 0 0,0 -0.22986901955282488,-0.17005160527305965 l 2.4729518256791545 -3.2833508984092736" fill="#4dd2ff" stroke="none"><title>2023-08-08 33.4 km</title></path><path d="M 91.81054553488644 99.4436664259085 l -7.602202522972791 8.766477063275252 a24.10364612099253,24.10364612099253 0 0,0 -0.3111179811394519,-0.2745254452881691 l 7.751976666556641 -8.634318795503578" fill="#4dd2ff" stroke="none"><title>2023-08-13 94.4 km</title></path><line stroke="#FFFFFF" stroke-width="0.3" x1="55.979751469454534" x2="51.66404082920498" y1="115.75301379079757" y2="118.27781906440518" /><path d="M 55.116609341404626 116.25797484551909 a52.0,52.0 0 0,1 -7.093015937147203,-24.691718993479856" fill="none" id="id9" stroke="none" /><text fill="#FFFFFF" style="font-size:4.2px; font-family:Arial;" text-anchor="middle"><textPath startOffset="12.979511566064144" xlink:href="#id9">September</textPath></text><path d="M 89.10367101613348 96.12535833036324 l -32.68898695159957 18.376074991089727 a50.0,50.0 0 0,0 -0.4152942632106693,-0.7538797181004225 l 33.00045764900757 -17.81066520251441" fill="#4dd2ff" stroke="none"><title>2023-09-02 304.9 km</title></path><path d="M 87.71341810025022 92.29997939572101 l -5.184392329821022 0.9704892406378075 a17.774445297441314,17.774445297441314 0 0,0 -0.05370722807476802,-0.3012186570227414 l 5.200329583097688 -0.8811046605595817" fill="#4dd2ff" stroke="none"><title>2023-09-21 42.9 km</title></path><line stroke="#FFFFFF" stroke-width="0.3" x1="49.00425040860837" x2="44.00466711533468" y1="90.6584250998255" y2="90.72297658020055" /><path d="M 48.00433374995363 90.6713353959005 a52.0,52.0 0 0,1 6.449297582545718,-25.76173796748382" fill="none" id="id10" stroke="none" /><text fill="#FFFFFF" style="font-size:4.2px; font-family:Arial;" text-anchor="middle"><textPath startOffset="13.427080930411169" xlink:href="#id10">October</textPath></text><line stroke="#FFFFFF" stroke-width="0.3" x1="55.75972590879055" x2="51.42244413514257" y1="64.62682226573381" y2="62.13925582119791" /><path d="M 54.89226955406095 64.12930897682662 a52.0,52.0 0 0,1 17.890118862930432,-18.43734007409471" fill="none" id="id11" stroke="none" /><text fill="#FFFFFF" style="font-size:4.2px; font-family:Arial;" text-anchor="middle"><textPath startOffset="12.979511566064144" xlink:href="#id11">November</textPath></text><line stroke="#FFFFFF" stroke-width="0.3" x1="74.05778186354264" x2="71.51442714428212" y1="46.0909881896613" y2="41.78618311021633" /><path d="M 73.54911091969055 45.23002717377231 a52.0,52.0 0 0,1 25.555794560206024,-7.222322812646352" fill="none" id="id12" stroke="none" /><text fill="#FFFFFF" style="font-size:4.2px; font-family:Arial;" text-anchor="middle"><textPath startOffset="13.427080930411169" xlink:href="#id12">December</textPath></text><path d="M 98.28401534858419 77.61834434834722 l -1.1949138672449415 -8.621879004223397 a21.204287260517226,21.204287260517226 0 0,0 0.36197260358970906,-0.04699443262922885 l 1.0463253538291266 8.641170057783658" fill="#4dd2ff" stroke="none"><title>2023-12-24 70.8 km</title></path><path d="M 98.71122878190705 77.56661475110599 l -3.565261391958064 -34.395762239955516 a47.08004553005297,47.08004553005297 0 0,0 0.8068059715101762,-0.07661594858047945 l 2.972666654322747 34.45203625074741" fill="#4dd2ff" stroke="none"><title>2023-12-26 281.2 km</title></path></g><g id="year2024"><text alignment-baseline="middle" fill="#FFFFFF" style="dominant-baseline: central; font-size:5.6px; font-family:Arial;" text-anchor="middle" x="100.0" y="210.0">2024</text><line stroke="#FFFFFF" stroke-width="0.3" x1="100.0" x2="100.0" y1="159.0" y2="154.0" /><path d="M 100.0 158.0 a52.0,52.0 0 0,1 25.61249953360095,6.745167466431926" fill="none" id="id13" stroke="none" /><text fill="#FFFFFF" style="font-size:4.2px; font-family:Arial;" text-anchor="middle"><textPath startOffset="13.390394916940103" xlink:href="#id13">January</textPath></text><line stroke="#FFFFFF" stroke-width="0.3" x1="125.87816975798611" x2="128.41524522445536" y1="166.05321024264853" y2="161.7447014429082" /><path d="M 126.38558485127996 165.19150848270044 a52.0,52.0 0 0,1 17.728677434959835,17.27792917395391" fill="none" id="id14" stroke="none" /><text fill="#FFFFFF" style="font-size:4.2px; font-family:Arial;" text-anchor="middle"><textPath startOffset="12.497701922477427" xlink:href="#id14">February</textPath></text><path d="M 106.34268866617307 199.22872800064914 l 4.243973623854691 -7.207195034561115 a20.863908917855138,20.863908917855138 0 0,0 0.3070643246037263,0.18438330424988836 l -4.367069351171176 7.133279587135083" fill="#4dd2ff" stroke="none"><title>2024-02-01 68.0 km</title></path><line stroke="#FFFFFF" stroke-width="0.3" x1="143.72304603189295" x2="148.0096191722746" y1="183.74556712299864" y2="181.17160311544947" /><path d="M 144.58036065996927 183.2307743214888 a52.0,52.0 0 0,1 7.402399650774999,25.43033416845179" fill="none" id="id15" stroke="none" /><text fill="#FFFFFF" style="font-size:4.2px; font-family:Arial;" text-anchor="middle"><textPath startOffset="13.3903949169401" xlink:href="#id15">March</textPath></text><path d="M 111.87487403743127 206.09649303892758 l 3.751271442634638 -1.2331174329125005 a16.448748667575448,16.448748667575448 0 0,0 0.08587443977514746,0.2690004594987117 l -3.7718867846581525 1.1685401676451062" fill="#4dd2ff" stroke="none"><title>2024-03-14 32.1 km</title></path><path d="M 112.00187342089502 206.50642956435487 l 4.862973988468298 -1.415540854300822 a17.564807195018776,17.564807195018776 0 0,0 0.08178634923562698,0.29023090070680274 l -4.88655705917689 1.331852856032702" fill="#4dd2ff" stroke="none"><title>2024-03-16 41.2 km</title></path><path d="M 112.21329820604188 207.3381685007698 l 4.510652118109526 -0.9830756350576715 a17.116537689096667,17.116537689096667 0 0,0 0.060105365331190035,0.28762593149693116 l -4.526863263693315 0.9054994349384757" fill="#4dd2ff" stroke="none"><title>2024-03-20 37.5 km</title></path><path d="M 112.33413224139977 207.97042323336544 l 3.286089242026672 -0.5407247342718764 a15.830280130081675,15.830280130081675 0 0,0 0.04182096765000955,0.2685206126509988 l -3.2948872883304112 0.48423496570930546" fill="#4dd2ff" stroke="none"><title>2024-03-23 27.1 km</title></path><path d="M 112.48848958618895 209.46369052250557 l 17.483807472222008 -0.7508299210506887 a29.99992197971383,29.99992197971383 0 0,0 0.017678972598528287,0.5147039977550504 l -17.494120187080565 0.45058648010270985" fill="#4dd2ff" stroke="none"><title>2024-03-30 142.3 km</title></path><line stroke="#FFFFFF" stroke-width="0.3" x1="150.9981212236332" x2="155.99793702987176" y1="209.56224246481355" y2="209.51932505940312" /><path d="M 151.9980843848809 209.55365898373148 a52.0,52.0 0 0,1 -6.098786871952449,24.88513165368917" fill="none" id="id16" stroke="none" /><text fill="#FFFFFF" style="font-size:4.2px; font-family:Arial;" text-anchor="middle"><textPath startOffset="12.944048419708766" xlink:href="#id16">April</textPath></text><path d="M 112.49953951559637 209.8927064864739 l 16.51172068127503 -0.1417332633770106 a29.012328974871867,29.012328974871867 0 0,0 0.0,0.49805355380619404 l -16.51172068127503 -0.1417332633770086" fill="#4dd2ff" stroke="none"><title>2024-04-01 134.3 km</title></path><path d="M 112.47744291324642 210.75061198143686 l 11.175235082947543 0.6722743920333756 a23.695438000244806,23.695438000244806 0 0,0 -0.02791101307546783,0.40582000449195704 l -11.162047902511917 -0.8640131013791085" fill="#4dd2ff" stroke="none"><title>2024-04-05 91.0 km</title></path><path d="M 112.44432242745047 211.17849027219282 l 9.45275158635115 0.8951854032162224 a21.99504446853176,21.99504446853176 0 0,0 -0.038823984557516046,0.37558683231434825 l -9.43599165388788 -1.057322546413268" fill="#4dd2ff" stroke="none"><title>2024-04-07 77.2 km</title></path><path d="M 112.11472581799067 213.07951592866644 l 5.593746167780872 1.421908401675664 a18.27163925521329,18.27163925521329 0 0,0 -0.07988231840808589,0.30332617435402603 l -5.568512967941399 -1.517722971489692" fill="#4dd2ff" stroke="none"><title>2024-04-16 46.9 km</title></path><path d="M 112.00187342089502 213.49357043564513 l 5.0003833967174955 1.4555387304159897 a17.707919652789297,17.707919652789297 0 0,0 -0.08746336149844544,0.2911370845116646 l -4.974660320931175 -1.5411624837316564" fill="#4dd2ff" stroke="none"><title>2024-04-18 42.3 km</title></path><path d="M 111.87487403743127 213.90350696107242 l 9.4886799279074 3.119117561434531 a22.488190083109256,22.488190083109256 0 0,0 -0.12370065700242325,0.365699012261362 l -9.433737948540475 -3.2815437608828932" fill="#4dd2ff" stroke="none"><title>2024-04-20 81.2 km</title></path><path d="M 111.41057324990169 215.10380427804867 l 1.27168997791198 0.568810751876528 a13.893104831436641,13.893104831436641 0 0,0 -0.09924674076727494,0.216872039761489 l -1.261738198540505 -0.590557185813427" fill="#4dd2ff" stroke="none"><title>2024-04-26 11.3 km</title></path><path d="M 111.3212782885059 215.29892988387326 l 4.381681087579525 2.050847993035388 a17.337882454523815,17.337882454523815 0 0,0 -0.12848257776080088,0.26847917213694955 l -4.3458299038902055 -2.1257631783063275" fill="#4dd2ff" stroke="none"><title>2024-04-27 39.3 km</title></path><line stroke="#FFFFFF" stroke-width="0.3" x1="144.59852884938303" x2="148.9709336385382" y1="234.738052155955" y2="237.16335138693097" /><path d="M 145.47300980721405 235.2231120021502 a52.0,52.0 0 0,1 -18.322115591219166,19.1258332307621" fill="none" id="id17" stroke="none" /><text fill="#FFFFFF" style="font-size:4.2px; font-family:Arial;" text-anchor="middle"><textPath startOffset="13.3903949169401" xlink:href="#id17">May</textPath></text><line stroke="#FFFFFF" stroke-width="0.3" x1="125.87816975798614" x2="128.41524522445536" y1="253.94678975735147" y2="258.2552985570918" /><path d="M 126.38558485127999 254.80849151729953 a52.0,52.0 0 0,1 -24.600549624591327,7.1608614634667385" fill="none" id="id18" stroke="none" /><text fill="#FFFFFF" style="font-size:4.2px; font-family:Arial;" text-anchor="middle"><textPath startOffset="12.944048419708778" xlink:href="#id18">June</textPath></text><line stroke="#FFFFFF" stroke-width="0.3" x1="100.87548281749008" x2="100.96131446626362" y1="260.9924850329564" y2="265.9917482714815" /><path d="M 100.89264914724478 261.9923376806614 a52.0,52.0 0 0,1 -25.724515241994165,-6.304500937689688" fill="none" id="id19" stroke="none" /><text fill="#FFFFFF" style="font-size:4.2px; font-family:Arial;" text-anchor="middle"><textPath startOffset="13.3903949169401" xlink:href="#id19">July</textPath></text><line stroke="#FFFFFF" stroke-width="0.3" x1="74.88004853435292" x2="72.4173081945836" y1="254.38454729253792" y2="258.7359734976887" /><path d="M 74.38750046639906 255.25483253356808 a52.0,52.0 0 0,1 -18.967861126368334,-18.48560685505687" fill="none" id="id20" stroke="none" /><text fill="#FFFFFF" style="font-size:4.2px; font-family:Arial;" text-anchor="middle"><textPath startOffset="13.3903949169401" xlink:href="#id20">August</textPath></text><line stroke="#FFFFFF" stroke-width="0.3" x1="55.83270440699364" x2="51.50257738807145" y1="235.50000000000003" y2="238.00000000000003" /><path d="M 54.96667900320921 236.00000000000003 a52.0,52.0 0 0,1 -6.949439313953483,-24.661108489940595" fill="none" id="id21" stroke="none" /><text fill="#FFFFFF" style="font-size:4.2px; font-family:Arial;" text-anchor="middle"><textPath startOffset="12.944048419708766" xlink:href="#id21">September</textPath></text><line stroke="#FFFFFF" stroke-width="0.3" x1="49.001878776366794" x2="44.00206297012824" y1="210.43775753518642" y2="210.48067494059686" /><path d="M 48.00191561511909 210.44634101626852 a52.0,52.0 0 0,1 6.525074577666837,-25.669453018418682" fill="none" id="id22" stroke="none" /><text fill="#FFFFFF" style="font-size:4.2px; font-family:Arial;" text-anchor="middle"><textPath startOffset="13.390394916940076" xlink:href="#id22">October</textPath></text><line stroke="#FFFFFF" stroke-width="0.3" x1="55.832704406993635" x2="51.50257738807144" y1="184.5" y2="182.0" /><path d="M 54.966679003209194 184.0 a52.0,52.0 0 0,1 17.882426780795917,-18.348945232912303" fill="none" id="id23" stroke="none" /><text fill="#FFFFFF" style="font-size:4.2px; font-family:Arial;" text-anchor="middle"><textPath startOffset="12.944048419708766" xlink:href="#id23">November</textPath></text><line stroke="#FFFFFF" stroke-width="0.3" x1="74.12183024201389" x2="71.58475477554465" y1="166.05321024264853" y2="161.7447014429082" /><path d="M 73.61441514872004 165.19150848270044 a52.0,52.0 0 0,1 25.492935704035176,-7.183846163361853" fill="none" id="id24" stroke="none" /><text fill="#FFFFFF" style="font-size:4.2px; font-family:Arial;" text-anchor="middle"><textPath startOffset="13.3903949169401" xlink:href="#id24">December</textPath></text></g></g></svg>